<?xml version="1.0" encoding="UTF-8" standalone="no"?>
<svg
   xmlns:dc="http://purl.org/dc/elements/1.1/"
   xmlns:cc="http://creativecommons.org/ns#"
   xmlns:rdf="http://www.w3.org/1999/02/22-rdf-syntax-ns#"
   xmlns:svg="http://www.w3.org/2000/svg"
   xmlns="http://www.w3.org/2000/svg"
   xmlns:sodipodi="http://sodipodi.sourceforge.net/DTD/sodipodi-0.dtd"
   xmlns:inkscape="http://www.inkscape.org/namespaces/inkscape"
   height="24px"
   id="Layer_1"
   version="1.2"
   viewBox="0 0 24 24"
   width="24px"
   xml:space="preserve"
   inkscape:version="0.91 r13725"
   sodipodi:docname="shuffle.svg"><metadata
     id="metadata15"><rdf:RDF><cc:Work
         rdf:about=""><dc:format>image/svg+xml</dc:format><dc:type
           rdf:resource="http://purl.org/dc/dcmitype/StillImage" /></cc:Work></rdf:RDF></metadata><defs
     id="defs13" /><sodipodi:namedview
     pagecolor="#ffffff"
     bordercolor="#666666"
     borderopacity="1"
     objecttolerance="10"
     gridtolerance="10"
     guidetolerance="10"
     inkscape:pageopacity="0"
     inkscape:pageshadow="2"
     inkscape:window-width="1548"
     inkscape:window-height="865"
     id="namedview11"
     showgrid="false"
     inkscape:zoom="9.8333333"
     inkscape:cx="12"
     inkscape:cy="12"
     inkscape:window-x="0"
     inkscape:window-y="0"
     inkscape:window-maximized="0"
     inkscape:current-layer="Layer_1" /><g
     id="g3"
     style="fill:#fcffff;fill-opacity:1"
     transform="matrix(1.1111111,0,0,1.1111111,-1.3333333,-1.8333331)"><path
       d="M 4,9 7.5,9 C 8.236,9 8.893,9.391 9.351,10.001 9.676,9.397 10.08,8.838 10.542,8.339 9.739,7.516 8.676,7 7.5,7 L 4,7 C 3.447,7 3,7.448 3,8 3,8.552 3.447,9 4,9 Z"
       id="path5"
       style="fill:#fcffff;fill-opacity:1"
       inkscape:connector-curvature="0" /><path
       d="M 11.685,12.111 C 12.236,10.454 13.941,9 15.334,9 l 1.838,0 -1.293,1.293 c -0.391,0.391 -0.391,1.023 0,1.414 0.195,0.195 0.451,0.293 0.707,0.293 0.256,0 0.512,-0.098 0.707,-0.293 L 21,8 17.293,4.293 c -0.391,-0.391 -1.023,-0.391 -1.414,0 -0.391,0.391 -0.391,1.023 0,1.414 L 17.172,7 15.334,7 C 13.06,7 10.623,8.967 9.787,11.479 L 9.315,12.89 C 8.674,14.816 7.243,16 6.5,16 L 4,16 c -0.553,0 -1,0.448 -1,1 0,0.552 0.447,1 1,1 l 2.5,0 c 1.837,0 3.863,-1.925 4.713,-4.479 l 0.472,-1.41 z"
       id="path7"
       style="fill:#fcffff;fill-opacity:1"
       inkscape:connector-curvature="0" /><path
       d="m 15.879,13.293 c -0.391,0.391 -0.391,1.023 0,1.414 L 17.172,16 14.834,16 c -1.268,0 -2.33,-0.891 -2.691,-2.108 -0.256,0.75 -0.627,1.499 -1.09,2.185 0.886,1.162 2.243,1.923 3.781,1.923 l 2.338,0 -1.293,1.293 c -0.391,0.391 -0.391,1.023 0,1.414 0.195,0.195 0.451,0.293 0.707,0.293 0.256,0 0.512,-0.098 0.707,-0.293 L 21,17 17.293,13.293 c -0.391,-0.391 -1.023,-0.391 -1.414,0 z"
       id="path9"
       style="fill:#fcffff;fill-opacity:1"
       inkscape:connector-curvature="0" /></g></svg>